<svg xmlns="http://www.w3.org/2000/svg" viewBox="0 0 600 380" fill="none">
  <rect width="600" height="380" rx="12" fill="#0B1220"/>
  <rect width="600" height="32" fill="#1e293b"/>
  <circle cx="20" cy="16" r="5" fill="#ef4444"/><circle cx="38" cy="16" r="5" fill="#eab308"/><circle cx="56" cy="16" r="5" fill="#22c55e"/>
  <rect x="0" y="32" width="160" height="348" fill="#050816"/>
  <text x="20" y="60" fill="#4F46E5" font-family="system-ui" font-size="14" font-weight="700">WEB CRM Pro</text>
  <rect x="15" y="80" width="130" height="32" rx="6" fill="#4F46E5" opacity="0.2"/>
  <text x="25" y="100" fill="#4F46E5" font-family="system-ui" font-size="11">Дашборд</text>
  <text x="25" y="135" fill="#94A3B8" font-family="system-ui" font-size="11">Клиенты</text>
  <text x="25" y="165" fill="#94A3B8" font-family="system-ui" font-size="11">Сделки</text>
  <text x="25" y="195" fill="#94A3B8" font-family="system-ui" font-size="11">Воронка</text>
  <text x="25" y="225" fill="#94A3B8" font-family="system-ui" font-size="11">Отчёты</text>
  <text x="180" y="60" fill="white" font-family="system-ui" font-size="18" font-weight="600">Панель CRM</text>
  <rect x="180" y="80" width="120" height="70" rx="8" fill="#050816" stroke="rgba(255,255,255,0.08)"/>
  <text x="195" y="105" fill="#94A3B8" font-family="system-ui" font-size="10">Сделки</text>
  <text x="195" y="135" fill="#4F46E5" font-family="system-ui" font-size="24" font-weight="700">284</text>
  <rect x="315" y="80" width="120" height="70" rx="8" fill="#050816" stroke="rgba(255,255,255,0.08)"/>
  <text x="330" y="105" fill="#94A3B8" font-family="system-ui" font-size="10">Конверсия</text>
  <text x="330" y="135" fill="#84cc16" font-family="system-ui" font-size="24" font-weight="700">38%</text>
  <rect x="450" y="80" width="120" height="70" rx="8" fill="#050816" stroke="rgba(255,255,255,0.08)"/>
  <text x="465" y="105" fill="#94A3B8" font-family="system-ui" font-size="10">Доход</text>
  <text x="465" y="135" fill="#3B82F6" font-family="system-ui" font-size="24" font-weight="700">1.2M</text>
  <rect x="180" y="170" width="390" height="190" rx="8" fill="#050816" stroke="rgba(255,255,255,0.08)"/>
  <text x="200" y="195" fill="#94A3B8" font-family="system-ui" font-size="11">Воронка продаж</text>
  <rect x="200" y="220" width="70" height="120" rx="4" fill="#4F46E5" opacity="0.85"/>
  <rect x="285" y="240" width="70" height="100" rx="4" fill="#3B82F6" opacity="0.7"/>
  <rect x="370" y="255" width="70" height="85" rx="4" fill="#4F46E5" opacity="0.45"/>
  <rect x="455" y="270" width="70" height="70" rx="4" fill="#84cc16" opacity="0.55"/>
</svg>
