<svg xmlns="http://www.w3.org/2000/svg" viewBox="0 0 600 380" fill="none">
  <rect width="600" height="380" rx="12" fill="#0B0B0B"/>
  <rect width="600" height="32" fill="#141414"/>
  <circle cx="20" cy="16" r="5" fill="#ef4444"/><circle cx="38" cy="16" r="5" fill="#eab308"/><circle cx="56" cy="16" r="5" fill="#22c55e"/>
  <rect x="0" y="32" width="150" height="348" fill="#050505"/>
  <text x="18" y="58" fill="#c9f24d" font-family="system-ui" font-size="13" font-weight="700">WEB CRM Pro</text>
  <rect x="14" y="76" width="122" height="28" rx="6" fill="#c9f24d" opacity="0.15"/>
  <text x="24" y="95" fill="#c9f24d" font-family="system-ui" font-size="10">Pipeline</text>
  <text x="24" y="125" fill="#8a8a8a" font-family="system-ui" font-size="10">Clients</text>
  <text x="24" y="152" fill="#8a8a8a" font-family="system-ui" font-size="10">Tasks</text>
  <text x="24" y="179" fill="#8a8a8a" font-family="system-ui" font-size="10">Analytics</text>
  <text x="170" y="58" fill="#ffffff" font-family="system-ui" font-size="17" font-weight="600">CRM Dashboard</text>
  <rect x="170" y="76" width="115" height="64" rx="8" fill="#0f0f0f" stroke="rgba(201,242,77,0.2)"/>
  <text x="184" y="98" fill="#8a8a8a" font-family="system-ui" font-size="9">Deals</text>
  <text x="184" y="125" fill="#c9f24d" font-family="system-ui" font-size="22" font-weight="700">284</text>
  <rect x="300" y="76" width="115" height="64" rx="8" fill="#0f0f0f" stroke="rgba(201,242,77,0.2)"/>
  <text x="314" y="98" fill="#8a8a8a" font-family="system-ui" font-size="9">Conversion</text>
  <text x="314" y="125" fill="#c9f24d" font-family="system-ui" font-size="22" font-weight="700">38%</text>
  <rect x="430" y="76" width="150" height="64" rx="8" fill="#0f0f0f" stroke="rgba(201,242,77,0.2)"/>
  <text x="444" y="98" fill="#8a8a8a" font-family="system-ui" font-size="9">Revenue</text>
  <text x="444" y="125" fill="#c9f24d" font-family="system-ui" font-size="22" font-weight="700">1.2M</text>
  <rect x="170" y="158" width="410" height="190" rx="8" fill="#0f0f0f" stroke="rgba(255,255,255,0.08)"/>
  <text x="190" y="182" fill="#8a8a8a" font-family="system-ui" font-size="10">Sales funnel</text>
  <rect x="190" y="200" width="80" height="120" rx="4" fill="#c9f24d" opacity="0.9"/>
  <rect x="290" y="220" width="80" height="100" rx="4" fill="#c9f24d" opacity="0.65"/>
  <rect x="390" y="240" width="80" height="80" rx="4" fill="#c9f24d" opacity="0.4"/>
  <rect x="490" y="260" width="70" height="60" rx="4" fill="#c9f24d" opacity="0.25"/>
</svg>
