<svg xmlns="http://www.w3.org/2000/svg" viewBox="0 0 600 380" fill="none">
  <rect width="600" height="380" rx="12" fill="#0B1220"/>
  <rect width="600" height="32" fill="#1e293b"/>
  <circle cx="20" cy="16" r="5" fill="#ef4444"/><circle cx="38" cy="16" r="5" fill="#eab308"/><circle cx="56" cy="16" r="5" fill="#22c55e"/>
  <rect x="0" y="32" width="600" height="50" fill="#050816"/>
  <text x="20" y="62" fill="#84cc16" font-family="system-ui" font-size="18" font-weight="700">ShopKit</text>
  <rect x="420" y="46" width="160" height="28" rx="14" fill="#0f172a" stroke="rgba(255,255,255,0.08)"/>
  <text x="440" y="65" fill="#94A3B8" font-family="system-ui" font-size="11">Поиск товаров...</text>
  <rect x="20" y="100" width="175" height="200" rx="10" fill="#050816" stroke="rgba(255,255,255,0.08)"/>
  <rect x="30" y="110" width="155" height="120" rx="6" fill="#1a2e1a"/>
  <text x="30" y="250" fill="white" font-family="system-ui" font-size="12" font-weight="600">iPhone 15 Pro</text>
  <text x="30" y="268" fill="#84cc16" font-family="system-ui" font-size="13" font-weight="600">8 990 сом.</text>
  <rect x="30" y="278" width="80" height="22" rx="4" fill="#4F46E5"/>
  <text x="42" y="293" fill="white" font-family="system-ui" font-size="9">В корзину</text>
  <rect x="212" y="100" width="175" height="200" rx="10" fill="#050816" stroke="rgba(255,255,255,0.08)"/>
  <rect x="222" y="110" width="155" height="120" rx="6" fill="#1a2e1a"/>
  <text x="222" y="250" fill="white" font-family="system-ui" font-size="12" font-weight="600">AirPods Pro</text>
  <text x="222" y="268" fill="#84cc16" font-family="system-ui" font-size="13" font-weight="600">1 890 сом.</text>
  <rect x="222" y="278" width="80" height="22" rx="4" fill="#4F46E5"/>
  <text x="234" y="293" fill="white" font-family="system-ui" font-size="9">В корзину</text>
  <rect x="404" y="100" width="175" height="200" rx="10" fill="#050816" stroke="rgba(255,255,255,0.08)"/>
  <rect x="414" y="110" width="155" height="120" rx="6" fill="#1a2e1a"/>
  <text x="414" y="250" fill="white" font-family="system-ui" font-size="12" font-weight="600">Galaxy Watch</text>
  <text x="414" y="268" fill="#84cc16" font-family="system-ui" font-size="13" font-weight="600">2 450 сом.</text>
  <rect x="414" y="278" width="80" height="22" rx="4" fill="#4F46E5"/>
  <text x="426" y="293" fill="white" font-family="system-ui" font-size="9">В корзину</text>
  <rect x="20" y="320" width="560" height="40" rx="8" fill="#4F46E5" opacity="0.15"/>
  <text x="200" y="345" fill="#4F46E5" font-family="system-ui" font-size="12" font-weight="600">Бесплатная доставка при заказе от 500 сом.</text>
</svg>
