<svg xmlns="http://www.w3.org/2000/svg" viewBox="0 0 600 380" fill="none">
  <rect width="600" height="380" rx="12" fill="#0B0B0B"/>
  <rect width="600" height="32" fill="#141414"/>
  <circle cx="20" cy="16" r="5" fill="#ef4444"/><circle cx="38" cy="16" r="5" fill="#eab308"/><circle cx="56" cy="16" r="5" fill="#22c55e"/>
  <text x="20" y="58" fill="#c9f24d" font-family="system-ui" font-size="13" font-weight="700">ShopKit</text>
  <rect x="20" y="70" width="560" height="36" rx="8" fill="#0f0f0f" stroke="rgba(201,242,77,0.15)"/>
  <text x="36" y="93" fill="#8a8a8a" font-family="system-ui" font-size="11">Search products...</text>
  <rect x="20" y="120" width="175" height="220" rx="8" fill="#0f0f0f" stroke="rgba(255,255,255,0.08)"/>
  <rect x="32" y="132" width="151" height="100" rx="6" fill="#1a2608"/>
  <text x="32" y="252" fill="#ffffff" font-family="system-ui" font-size="12" font-weight="600">Phone Pro</text>
  <text x="32" y="272" fill="#c9f24d" font-family="system-ui" font-size="14" font-weight="700">2 499 TJ</text>
  <rect x="212" y="120" width="175" height="220" rx="8" fill="#0f0f0f" stroke="rgba(255,255,255,0.08)"/>
  <rect x="224" y="132" width="151" height="100" rx="6" fill="#1a2608"/>
  <text x="224" y="252" fill="#ffffff" font-family="system-ui" font-size="12" font-weight="600">Headphones X</text>
  <text x="224" y="272" fill="#c9f24d" font-family="system-ui" font-size="14" font-weight="700">899 TJ</text>
  <rect x="404" y="120" width="176" height="220" rx="8" fill="#0f0f0f" stroke="rgba(255,255,255,0.08)"/>
  <rect x="416" y="132" width="152" height="100" rx="6" fill="#1a2608"/>
  <text x="416" y="252" fill="#ffffff" font-family="system-ui" font-size="12" font-weight="600">Smart Watch</text>
  <text x="416" y="272" fill="#c9f24d" font-family="system-ui" font-size="14" font-weight="700">1 750 TJ</text>
  <rect x="20" y="352" width="120" height="14" rx="4" fill="#c9f24d" opacity="0.2"/>
  <text x="150" y="363" fill="#8a8a8a" font-family="system-ui" font-size="10">Cart / Payment / Delivery</text>
</svg>
