<svg xmlns="http://www.w3.org/2000/svg" viewBox="0 0 600 380" fill="none">
  <rect width="600" height="380" rx="12" fill="#0B1220"/>
  <rect width="600" height="32" fill="#1e293b"/>
  <circle cx="20" cy="16" r="5" fill="#ef4444"/><circle cx="38" cy="16" r="5" fill="#eab308"/><circle cx="56" cy="16" r="5" fill="#22c55e"/>
  <rect x="0" y="32" width="160" height="348" fill="#050816" stroke-r="0"/>
  <text x="20" y="60" fill="#3B82F6" font-family="system-ui" font-size="14" font-weight="700">Cargo System</text>
  <rect x="15" y="80" width="130" height="32" rx="6" fill="#3B82F6" opacity="0.2"/>
  <text x="25" y="100" fill="#3B82F6" font-family="system-ui" font-size="11">Дашборд</text>
  <text x="25" y="135" fill="#94A3B8" font-family="system-ui" font-size="11">Заказы</text>
  <text x="25" y="165" fill="#94A3B8" font-family="system-ui" font-size="11">Трекинг</text>
  <text x="25" y="195" fill="#94A3B8" font-family="system-ui" font-size="11">Клиенты</text>
  <text x="25" y="225" fill="#94A3B8" font-family="system-ui" font-size="11">Отчёты</text>
  <text x="180" y="60" fill="white" font-family="system-ui" font-size="18" font-weight="600">Панель управления</text>
  <rect x="180" y="80" width="120" height="70" rx="8" fill="#050816" stroke="rgba(255,255,255,0.08)"/>
  <text x="195" y="105" fill="#94A3B8" font-family="system-ui" font-size="10">Активные заказы</text>
  <text x="195" y="135" fill="#3B82F6" font-family="system-ui" font-size="24" font-weight="700">148</text>
  <rect x="315" y="80" width="120" height="70" rx="8" fill="#050816" stroke="rgba(255,255,255,0.08)"/>
  <text x="330" y="105" fill="#94A3B8" font-family="system-ui" font-size="10">В пути</text>
  <text x="330" y="135" fill="#84cc16" font-family="system-ui" font-size="24" font-weight="700">67</text>
  <rect x="450" y="80" width="120" height="70" rx="8" fill="#050816" stroke="rgba(255,255,255,0.08)"/>
  <text x="465" y="105" fill="#94A3B8" font-family="system-ui" font-size="10">Доставлено</text>
  <text x="465" y="135" fill="#4F46E5" font-family="system-ui" font-size="24" font-weight="700">2.4K</text>
  <rect x="180" y="170" width="390" height="190" rx="8" fill="#050816" stroke="rgba(255,255,255,0.08)"/>
  <text x="200" y="195" fill="#94A3B8" font-family="system-ui" font-size="11">Карта маршрутов</text>
  <circle cx="300" cy="280" r="4" fill="#3B82F6"/><circle cx="380" cy="250" r="4" fill="#84cc16"/><circle cx="450" cy="300" r="4" fill="#4F46E5"/>
  <path d="M300 280 Q340 260 380 250 Q420 270 450 300" stroke="#3B82F6" stroke-width="1.5" stroke-dasharray="4 4" fill="none"/>
  <rect x="200" y="220" width="350" height="120" rx="4" fill="#0f172a" opacity="0.5"/>
</svg>
