<svg xmlns="http://www.w3.org/2000/svg" viewBox="0 0 600 380" fill="none">
  <rect width="600" height="380" rx="12" fill="#0B1220"/>
  <rect width="600" height="32" fill="#1e293b"/>
  <circle cx="20" cy="16" r="5" fill="#ef4444"/><circle cx="38" cy="16" r="5" fill="#eab308"/><circle cx="56" cy="16" r="5" fill="#22c55e"/>
  <rect x="200" y="9" width="200" height="14" rx="7" fill="#0f172a"/>
  <rect x="0" y="32" width="600" height="40" fill="#0f172a"/>
  <text x="20" y="58" fill="#4F46E5" font-family="system-ui" font-size="16" font-weight="700">InovaAuto</text>
  <rect x="480" y="44" width="100" height="24" rx="6" fill="#4F46E5"/>
  <text x="498" y="60" fill="white" font-family="system-ui" font-size="11">+ Добавить</text>
  <rect x="20" y="88" width="175" height="130" rx="10" fill="#050816" stroke="rgba(255,255,255,0.08)"/>
  <rect x="30" y="98" width="155" height="75" rx="6" fill="#1e3a5f"/>
  <ellipse cx="107" cy="145" rx="50" ry="18" fill="#334155"/>
  <text x="30" y="195" fill="white" font-family="system-ui" font-size="13" font-weight="600">Toyota Camry 2023</text>
  <text x="30" y="212" fill="#84cc16" font-family="system-ui" font-size="12">$24,500</text>
  <rect x="212" y="88" width="175" height="130" rx="10" fill="#050816" stroke="rgba(255,255,255,0.08)"/>
  <rect x="222" y="98" width="155" height="75" rx="6" fill="#1e3a5f"/>
  <ellipse cx="299" cy="145" rx="50" ry="18" fill="#334155"/>
  <text x="222" y="195" fill="white" font-family="system-ui" font-size="13" font-weight="600">BMW X5 2022</text>
  <text x="222" y="212" fill="#84cc16" font-family="system-ui" font-size="12">$42,000</text>
  <rect x="404" y="88" width="175" height="130" rx="10" fill="#050816" stroke="rgba(255,255,255,0.08)"/>
  <rect x="414" y="98" width="155" height="75" rx="6" fill="#1e3a5f"/>
  <ellipse cx="491" cy="145" rx="50" ry="18" fill="#334155"/>
  <text x="414" y="195" fill="white" font-family="system-ui" font-size="13" font-weight="600">Mercedes E200</text>
  <text x="414" y="212" fill="#84cc16" font-family="system-ui" font-size="12">$38,900</text>
  <rect x="20" y="240" width="560" height="120" rx="10" fill="#050816" stroke="rgba(255,255,255,0.08)"/>
  <text x="40" y="270" fill="#94A3B8" font-family="system-ui" font-size="12">Статистика продаж</text>
  <polyline points="60,330 120,300 180,310 240,270 300,280 360,250 420,260 480,230 540,240" stroke="#4F46E5" stroke-width="2" fill="none"/>
  <polyline points="60,330 120,300 180,310 240,270 300,280 360,250 420,260 480,230 540,240 540,340 60,340" fill="url(#chartFill)" opacity="0.3"/>
  <defs><linearGradient id="chartFill" x1="0" y1="0" x2="0" y2="1"><stop offset="0%" stop-color="#4F46E5"/><stop offset="100%" stop-color="transparent"/></linearGradient></defs>
</svg>
