<svg xmlns="http://www.w3.org/2000/svg" viewBox="0 0 600 380" fill="none">
  <rect width="600" height="380" rx="12" fill="#0B1220"/>
  <rect width="600" height="32" fill="#1e293b"/>
  <circle cx="20" cy="16" r="5" fill="#ef4444"/><circle cx="38" cy="16" r="5" fill="#eab308"/><circle cx="56" cy="16" r="5" fill="#22c55e"/>
  <rect x="0" y="32" width="600" height="348" fill="url(#heroBg)"/>
  <defs><linearGradient id="heroBg" x1="0" y1="0" x2="600" y2="380"><stop offset="0%" stop-color="#1e1b4b"/><stop offset="100%" stop-color="#0f172a"/></linearGradient></defs>
  <text x="300" y="140" text-anchor="middle" fill="white" font-family="system-ui" font-size="36" font-weight="700">SIYOMA</text>
  <text x="300" y="175" text-anchor="middle" fill="#94A3B8" font-family="system-ui" font-size="14">Премиальная недвижимость в Таджикистане</text>
  <rect x="230" y="200" width="140" height="40" rx="8" fill="#4F46E5"/>
  <text x="300" y="225" text-anchor="middle" fill="white" font-family="system-ui" font-size="13">Смотреть объекты</text>
  <rect x="40" y="280" width="160" height="80" rx="8" fill="rgba(11,18,32,0.8)" stroke="rgba(255,255,255,0.08)"/>
  <text x="55" y="310" fill="white" font-family="system-ui" font-size="11" font-weight="600">Квартиры</text>
  <text x="55" y="330" fill="#94A3B8" font-family="system-ui" font-size="10">120+ объектов</text>
  <rect x="220" y="280" width="160" height="80" rx="8" fill="rgba(11,18,32,0.8)" stroke="rgba(255,255,255,0.08)"/>
  <text x="235" y="310" fill="white" font-family="system-ui" font-size="11" font-weight="600">Дома</text>
  <text x="235" y="330" fill="#94A3B8" font-family="system-ui" font-size="10">45+ объектов</text>
  <rect x="400" y="280" width="160" height="80" rx="8" fill="rgba(11,18,32,0.8)" stroke="rgba(255,255,255,0.08)"/>
  <text x="415" y="310" fill="white" font-family="system-ui" font-size="11" font-weight="600">Коммерция</text>
  <text x="415" y="330" fill="#94A3B8" font-family="system-ui" font-size="10">30+ объектов</text>
</svg>
